<svg width="46" height="46" viewBox="0 0 46 46" fill="none" xmlns="http://www.w3.org/2000/svg">
<g clip-path="url(#clip0_806_48949)">
<path d="M10.5422 19.0355C8.92832 19.0355 7.38053 18.3944 6.23934 17.2532C5.09815 16.112 4.45703 14.5642 4.45703 12.9504C4.45703 8.89357 10.5422 2.04675 10.5422 2.04675C10.5422 2.04675 16.6274 8.89269 16.6274 12.9486C16.6277 13.7479 16.4706 14.5395 16.1649 15.2781C15.8593 16.0167 15.4111 16.6878 14.846 17.2532C14.2809 17.8185 13.61 18.267 12.8715 18.573C12.1331 18.8789 11.3415 19.0355 10.5422 19.0355Z" fill="#173760"/>
<path d="M35.4587 19.0355C33.8448 19.0355 32.297 18.3944 31.1558 17.2532C30.0147 16.112 29.3735 14.5642 29.3735 12.9504C29.3735 8.89357 35.4587 2.04675 35.4587 2.04675C35.4587 2.04675 41.5439 8.89269 41.5439 12.9486C41.5442 13.7479 41.3871 14.5395 41.0814 15.2781C40.7758 16.0167 40.3276 16.6878 39.7625 17.2532C39.1974 17.8185 38.5265 18.267 37.788 18.573C37.0496 18.8789 36.2581 19.0355 35.4587 19.0355Z" fill="#173760"/>
<path d="M22.9996 44.4607C19.7718 44.4607 16.6762 43.1785 14.3938 40.8961C12.1115 38.6137 10.8292 35.5181 10.8292 32.2903C10.8292 24.1768 22.9996 10.4832 22.9996 10.4832C22.9996 10.4832 35.1699 24.175 35.1699 32.2868C35.1706 33.8855 34.8563 35.4687 34.245 36.9458C33.6337 38.423 32.7374 39.7653 31.6072 40.896C30.477 42.0267 29.1351 42.9236 27.6582 43.5355C26.1813 44.1475 24.5983 44.4607 22.9996 44.4607Z" fill="#173760"/>
<path d="M22.9453 35.1687C22.6361 35.1687 22.3081 35.1265 21.9614 35.0422C21.6147 34.9578 21.2727 34.836 20.9354 34.6767C20.6074 34.5081 20.3169 34.3066 20.0639 34.0723L20.9073 32.7652C21.2633 33.0369 21.6054 33.2477 21.9333 33.3977C22.2613 33.5382 22.5986 33.6085 22.9453 33.6085C23.3576 33.6085 23.6622 33.5195 23.8589 33.3414C24.0557 33.1634 24.1541 32.9057 24.1541 32.5684C24.1541 32.306 24.0651 32.0811 23.887 31.8937C23.709 31.7063 23.4747 31.5376 23.1843 31.3877C22.9032 31.2378 22.6033 31.0832 22.2847 30.9239C21.9661 30.7646 21.6616 30.5819 21.3711 30.3757C21.09 30.1602 20.8557 29.9072 20.6683 29.6167C20.4903 29.3169 20.4013 28.9514 20.4013 28.5204C20.4013 27.9863 20.5184 27.5224 20.7527 27.1289C20.9869 26.7353 21.3196 26.4355 21.7506 26.2293C22.1816 26.0138 22.683 25.9061 23.2545 25.9061C23.8543 25.9061 24.3603 26.0185 24.7725 26.2434C25.1848 26.4589 25.555 26.7353 25.8829 27.0727L24.9131 28.1831C24.6601 27.9394 24.4118 27.7567 24.1682 27.6349C23.9339 27.5131 23.6622 27.4522 23.3529 27.4522C23.0062 27.4522 22.7345 27.5318 22.5377 27.6911C22.3503 27.8504 22.2566 28.0987 22.2566 28.4361C22.2566 28.6703 22.3456 28.8718 22.5237 29.0404C22.7017 29.2091 22.9313 29.3637 23.2124 29.5043C23.5029 29.6448 23.8074 29.7948 24.126 29.9541C24.4446 30.104 24.7444 30.2867 25.0255 30.5022C25.316 30.7084 25.5503 30.9661 25.7283 31.2753C25.9064 31.5845 25.9954 31.9687 25.9954 32.4278C25.9954 32.9619 25.8783 33.4351 25.644 33.8474C25.4097 34.2597 25.063 34.583 24.6039 34.8173C24.1541 35.0515 23.6013 35.1687 22.9453 35.1687ZM22.5237 36.5461V34.3956H23.8168V36.5461H22.5237ZM22.5237 26.5104V24.5286H23.8168V26.5104H22.5237Z" fill="white"/>
</g>
<defs>
<clipPath id="clip0_806_48949">
<rect width="46" height="46" fill="white"/>
</clipPath>
</defs>
</svg>
