<svg width="210" height="179" viewBox="0 0 210 179" fill="none" xmlns="http://www.w3.org/2000/svg">
<path d="M89.1632 149.174H84.547V168.921H82.3673V149.174H77.1095V147.122H89.1632V149.174ZM99.1642 147.122C99.1642 147.122 105.447 147.122 105.447 153.982C105.447 160.842 99.1642 160.843 99.1642 160.843L105.319 168.921H102.37L94.9327 159.047H98.3947C98.3957 159.047 103.14 158.79 103.14 153.982C103.14 149.174 98.3947 149.174 98.3947 149.174H92.881V168.921H90.8302V147.122H99.1642ZM109.808 168.921H107.756V147.122H109.808V168.921ZM127.246 165.715V147.122H129.426V168.921H126.734L114.552 150.328V168.921H112.243V147.122H114.937L127.246 165.715ZM80.3165 168.92H78.0079L74.9308 161.611H64.673L61.4669 168.92H58.9025L68.5197 147.25H71.0841L80.3165 168.92ZM152.378 168.92H150.069L146.992 161.611H136.734L133.528 168.92H130.964L140.581 147.249H143.146L152.378 168.92ZM65.5695 159.688H74.0323L69.9288 149.686L65.5695 159.688ZM137.634 159.688H146.097L141.993 149.686L137.634 159.688Z" fill="#EBDFCC"/>
<path fill-rule="evenodd" clip-rule="evenodd" d="M169.024 136.878H104.694L133.149 105.97V88.8598L87.6841 136.878H78.3799L139.772 73.4057V57.9515L60.8452 136.878H52.0143L169.024 19.868V136.878ZM157.986 40.5936V125.839H124.585L118.162 132.463H164.609V33.7419L157.986 40.5936Z" fill="#EBDFCC"/>
<path d="M158.383 13.2448H45.3911V71.7067L40.9756 75.7827V8.82935H162.875L158.383 13.2448Z" fill="#EBDFCC"/>
<path d="M40.9756 128.637V118.761L101.136 61.2632H83.4745L40.9756 101.663V92.3182L63.6049 71.1981H51.9065L52.0143 71.0957V19.8682H151.645L40.9756 128.637Z" fill="#EBDFCC"/>
</svg>
